<?xml version="1.0" encoding="UTF-8"?>
<svg width="48px" height="48px" viewBox="0 0 48 48" version="1.1" xmlns="http://www.w3.org/2000/svg" xmlns:xlink="http://www.w3.org/1999/xlink">
    <!-- Generator: Sketch 51.2 (57519) - http://www.bohemiancoding.com/sketch -->
    <title>select_p</title>
    <desc>Created with Sketch.</desc>
    <defs></defs>
    <g id="Page-1" stroke="none" stroke-width="1" fill="none" fill-rule="evenodd">
        <g id="新增事历-编辑-选人" transform="translate(-149.000000, -595.000000)">
            <g id="Group-Copy-6" transform="translate(30.000000, 248.000000)">
                <g id="select_p" transform="translate(120.000000, 348.000000)">
                    <circle id="椭圆_3_拷贝_5" stroke="#3296FA" stroke-width="2" fill="#3296FA" cx="23" cy="23" r="23"></circle>
                    <path d="M11.3157062,24.9457504 C10.9336872,24.5525013 10.8955866,23.8661497 11.2165559,23.4317567 L11.3735093,23.2193392 C11.7007691,22.7764327 12.3214274,22.6882888 12.76334,23.0251719 L17.7784097,26.8483086 C18.2187322,27.1839796 18.9139912,27.1757699 19.3446785,26.8188979 L33.3136862,15.2440335 C33.73839,14.8921195 34.4075573,14.9259622 34.800861,15.3123033 L34.7065661,15.2196777 C35.1032062,15.6092961 35.1032,16.2398958 34.7115043,16.6233143 L19.2884324,31.7204686 C18.8945196,32.1060573 18.2634941,32.0977798 17.8834835,31.7065982 L11.3157062,24.9457504 Z" id="Index-" fill="#FFFFFF"></path>
                </g>
            </g>
        </g>
    </g>
</svg>
