<?xml version="1.0" encoding="UTF-8"?>
<svg width="40px" height="40px" viewBox="0 0 40 40" version="1.1" xmlns="http://www.w3.org/2000/svg" xmlns:xlink="http://www.w3.org/1999/xlink">
    <!-- Generator: Sketch 52.2 (67145) - http://www.bohemiancoding.com/sketch -->
    <title>choose_p</title>
    <desc>Created with Sketch.</desc>
    <g id="Page-1" stroke="none" stroke-width="1" fill="none" fill-rule="evenodd">
        <g id="选择下属学校" transform="translate(-110.000000, -702.000000)" fill="#FE892B">
            <g id="分组-5" transform="translate(30.000000, 342.000000)">
                <g id="分组-4" transform="translate(80.000000, 356.000000)">
                    <g id="choose_p" transform="translate(0.000000, 4.000000)">
                        <path d="M40,20.2469136 C40,8.95407407 31.0459259,0 19.7530864,0 C8.95407407,0 0,8.95407407 0,20.2469136 C0,31.0459259 8.95407407,40 19.7530864,40 C31.0459259,40 40,31.0459259 40,20.2469136 Z M11.8220381,22.8239263 C11.055878,22.0309887 10.9591546,20.6746828 11.5918614,19.8137708 L10.4347826,21.3881857 C11.0738196,20.5186603 12.3020664,20.3581022 13.1792292,21.0303972 L15.7030578,22.9647671 C16.5797369,23.6366913 17.9718041,23.6137502 18.8240829,22.903733 L29.1263169,14.3211388 C29.9733324,13.6155063 31.292681,13.6683374 31.8170529,14.1862054 L30.6599741,13.0434783 C31.2990111,13.6745891 31.1740993,14.8189679 30.3976878,15.5830728 L18.709365,27.0861283 C17.9254712,27.8575968 16.6695544,27.8408653 15.9027443,27.047255 L11.8220381,22.8239263 Z" id="Combined-Shape"></path>
                    </g>
                </g>
            </g>
        </g>
    </g>
</svg>