<?xml version="1.0" encoding="utf-8"?>
<!-- Generator: Adobe Illustrator 22.0.0, SVG Export Plug-In . SVG Version: 6.00 Build 0)  -->
<svg version="1.1" id="图层_1" xmlns="http://www.w3.org/2000/svg" xmlns:xlink="http://www.w3.org/1999/xlink" x="0px" y="0px"
	 viewBox="0 0 30 18" style="enable-background:new 0 0 30 18;" xml:space="preserve">
<style type="text/css">
	.st0{fill:#BFC3C8;}
</style>
<title>箭头</title>
<desc>Created with Sketch.</desc>
<path id="形状" class="st0" d="M1.7,8C1.1,8,0.6,8.5,0.6,9.1c0,0.6,0.5,1.1,1.1,1.1c0.3,0,0.6-0.1,0.8-0.3
	c0.2-0.2,0.3-0.5,0.3-0.8C2.8,8.5,2.3,8,1.7,8z M7.6,8.1C7.2,7.9,6.7,8,6.4,8.3C6,8.7,6,9.4,6.4,9.9c0.2,0.2,0.5,0.3,0.8,0.3
	c0.6,0,1.1-0.5,1.1-1.1h0C8.3,8.6,8,8.2,7.6,8.1z M26.1,8l-5.2-5.1c-0.4-0.4-0.4-1.1,0-1.6c0.4-0.4,1.1-0.4,1.6,0l6.9,6.9
	c0.5,0.5,0.5,1.3,0,1.8l-0.7,0.7l-6.2,6.2c-0.4,0.4-1.1,0.4-1.6,0c0,0,0,0,0,0c-0.4-0.4-0.4-1.1,0-1.5c0,0,0,0,0,0l5.1-5.1H12.8
	c-0.6,0-1.1-0.5-1.1-1.1c0-0.6,0.5-1.1,1.1-1.1L26.1,8z"/>
</svg>
