<?xml version="1.0" encoding="utf-8"?>
<!-- Generator: Adobe Illustrator 24.0.1, SVG Export Plug-In . SVG Version: 6.00 Build 0)  -->
<svg version="1.1" id="图层_1" xmlns="http://www.w3.org/2000/svg" xmlns:xlink="http://www.w3.org/1999/xlink" x="0px" y="0px"
	 viewBox="0 0 19 18" style="enable-background:new 0 0 19 18;" xml:space="preserve">
<style type="text/css">
	.st0{fill-rule:evenodd;clip-rule:evenodd;fill:#0CADE3;}
</style>
<title>edit_date_p</title>
<desc>Created with Sketch.</desc>
<path class="st0" d="M13.7,3.4H5.3C4.5,3.4,3.9,4,3.9,4.8v8.4c0,0.8,0.6,1.4,1.4,1.4h8.4c0.8,0,1.4-0.6,1.4-1.4V4.8
	C15.1,4,14.5,3.4,13.7,3.4z M12.3,9.3L12,9.6v0l-2.2,2.2c-0.9,0.9-2.3,0.9-3.2,0c-0.9-0.9-0.9-2.3,0-3.2L8,7.4C8.3,7,8.8,6.9,9.3,7
	c0.5,0.1,0.8,0.5,0.9,0.9c0.1,0.5,0,0.9-0.3,1.3l-1.3,1.3c-0.1,0.1-0.2,0.1-0.3,0.1c-0.1,0-0.2,0-0.3-0.1c-0.1-0.1-0.1-0.2-0.1-0.3
	s0-0.2,0.1-0.3l1.3-1.3c0.1-0.1,0.2-0.3,0.1-0.5C9.3,7.9,9.1,7.8,8.9,7.8c-0.1,0-0.2,0-0.3,0.1L7.3,9.3c-0.3,0.3-0.4,0.6-0.4,1
	c0,0.4,0.1,0.7,0.4,1c0.3,0.3,0.6,0.4,1,0.4c0.4,0,0.7-0.1,0.9-0.4l2.5-2.5c0.3-0.3,0.4-0.6,0.4-1c0-0.4-0.1-0.7-0.4-1
	c-0.3-0.3-0.6-0.4-1-0.4c-0.4,0-0.7,0.1-0.9,0.4C9.7,6.8,9.6,6.9,9.5,6.9s-0.2,0-0.3-0.1C9.1,6.7,9.1,6.6,9.1,6.5s0-0.2,0.1-0.3
	c0.6-0.6,1.4-0.8,2.2-0.6c0.8,0.2,1.4,0.8,1.6,1.6C13.1,7.9,12.9,8.8,12.3,9.3z"/>
</svg>
