<?xml version="1.0" encoding="UTF-8"?>
<svg width="417px" height="202px" viewBox="0 0 417 202" version="1.1" xmlns="http://www.w3.org/2000/svg" xmlns:xlink="http://www.w3.org/1999/xlink">
    <!-- Generator: Sketch 52.2 (67145) - http://www.bohemiancoding.com/sketch -->
    <title>empte_image</title>
    <desc>Created with Sketch.</desc>
    <defs>
        <circle id="path-1" cx="101" cy="101" r="101"></circle>
        <rect id="path-3" x="79.6604938" y="53.5897436" width="195.123457" height="28.5811966"></rect>
        <mask id="mask-4" maskContentUnits="userSpaceOnUse" maskUnits="objectBoundingBox" x="0" y="0" width="195.123457" height="28.5811966" fill="white">
            <use xlink:href="#path-3"></use>
        </mask>
        <rect id="path-5" x="0" y="18.7564103" width="44.7530864" height="14.2905983"></rect>
        <mask id="mask-6" maskContentUnits="userSpaceOnUse" maskUnits="objectBoundingBox" x="0" y="0" width="44.7530864" height="14.2905983" fill="white">
            <use xlink:href="#path-5"></use>
        </mask>
    </defs>
    <g id="页面-1" stroke="none" stroke-width="1" fill="none" fill-rule="evenodd">
        <g id="工作流-新建-copy" transform="translate(-493.000000, -343.000000)">
            <g id="框架">
                <g id="empte_image" transform="translate(494.000000, 343.000000)">
                    <g id="分组-4" transform="translate(214.000000, 0.000000)">
                        <g id="椭圆形-2">
                            <g id="分组-3">
                                <mask id="mask-2" fill="white">
                                    <use xlink:href="#path-1"></use>
                                </mask>
                                <use id="Mask" fill="#EDEDED" xlink:href="#path-1"></use>
                                <g id="配图/1蓝" mask="url(#mask-2)">
                                    <g transform="translate(37.539823, 48.265487)">
                                        <path d="M1,208 L289,208 L289,10 C289,5.02943725 284.970563,1 280,1 L10,1 C5.02943725,1 1,5.02943725 1,10 L1,208 Z" id="路径" stroke-opacity="0.5" stroke="#9AB6D8" stroke-width="2" fill="#FFFFFF" fill-rule="evenodd"></path>
                                        <path d="" id="路径" stroke="#D8D8D8" stroke-width="1" fill="none"></path>
                                        <use id="矩形-copy-7" stroke="#91D7F9" mask="url(#mask-4)" stroke-width="4" fill="#EDF5FF" fill-rule="evenodd" stroke-dasharray="3,2" xlink:href="#path-3"></use>
                                        <rect id="矩形" stroke="none" fill="#EDF5FF" fill-rule="evenodd" x="42.0679012" y="10.7179487" width="22.3765432" height="8.03846154"></rect>
                                        <rect id="矩形-copy" stroke="none" fill="#EDF5FF" fill-rule="evenodd" x="42.0679012" y="21.4358974" width="13.4259259" height="4.46581197"></rect>
                                        <g id="分组" stroke="none" stroke-width="1" fill="none" fill-rule="evenodd" transform="translate(8.950617, 53.589744)">
                                            <path d="M0,0 L44.7530864,0 L44.7530864,12.5042735 L0,12.5042735 L0,0 Z M0,39.2991453 L44.7530864,39.2991453 L44.7530864,51.8034188 L0,51.8034188 L0,39.2991453 Z M0,58.0555556 L44.7530864,58.0555556 L44.7530864,70.5598291 L0,70.5598291 L0,58.0555556 Z M0,76.8119658 L44.7530864,76.8119658 L44.7530864,89.3162393 L0,89.3162393 L0,76.8119658 Z" id="合并形状" fill="#EDF5FF"></path>
                                            <use id="矩形-copy-2" stroke="#91D7F9" mask="url(#mask-6)" stroke-width="4" fill="#EDF5FF" stroke-dasharray="3,2" xlink:href="#path-5"></use>
                                        </g>
                                        <rect id="矩形" stroke="none" fill-opacity="0.5" fill="#9AB6D8" fill-rule="evenodd" x="0" y="36.6196581" width="290" height="1.78632479"></rect>
                                        <ellipse id="椭圆形" stroke="none" fill="#EDF5FF" fill-rule="evenodd" cx="21.9290123" cy="18.3098291" rx="11.1882716" ry="11.1645299"></ellipse>
                                        <rect id="矩形" stroke="none" fill-opacity="0.5" fill="#9AB6D8" fill-rule="evenodd" x="62.654321" y="38.4059829" width="1.79012346" height="170.594017"></rect>
                                    </g>
                                </g>
                            </g>
                        </g>
                        <g id="点击" transform="translate(85.000000, 126.000000)" fill="#A0A0A0" fill-rule="nonzero">
                            <path d="M0,0 L4.51952086,24.6129651 C4.51952086,24.6129651 7.86272444,21.3800869 10.6177723,19.1298585 L16.6788764,26.7526978 C16.9203301,27.0608678 17.4527692,27.084126 17.8613779,26.8050286 L20.4492656,25.0257835 C20.8578795,24.746686 20.9940837,24.2640822 20.7464392,23.955911 L14.8463052,16.5423745 C17.9294833,15.3736519 23,14.047937 23,14.047937 L0,0 Z" id="形状"></path>
                        </g>
                    </g>
                    <path id="路径-3" d="M4.86436855,14.5926181 C5.2644922,15.5255192 5.67485171,16.4459839 6.09532612,17.3539965 L5.18789663,17.7742009 C4.7578173,16.8454465 4.33825588,15.9038666 3.92933788,14.9494804 L0.172677308,16.3832416 L1.16774203,6.37025776 L8.5810903,13.1740999 L4.86436855,14.5926181 Z M165.086585,76.7173412 L165.60547,77.5721854 C164.448086,78.2747099 163.279382,78.9393148 162.100001,79.5660642 L161.630727,78.6830115 C162.79329,78.0651998 163.94545,77.4100024 165.086585,76.7173412 Z M158.071584,80.4431033 L158.48827,81.3521541 C157.261379,81.9145289 156.024597,82.4371347 154.77873,82.9200733 L154.417301,81.9876734 C155.644521,81.5119634 156.862876,80.997144 158.071584,80.4431033 Z M150.670571,83.3101021 L150.974358,84.2628421 C149.68889,84.6727214 148.395588,85.0413887 147.095457,85.3690068 L146.851107,84.3993197 C148.131276,84.0767317 149.404756,83.7137149 150.670571,83.3101021 Z M142.951468,85.2534249 L143.134776,86.2364804 C141.811815,86.4831702 140.483828,86.6881589 139.152034,86.8516993 L139.030152,85.8591547 C140.341415,85.6981354 141.648917,85.4963088 142.951468,85.2534249 Z M135.064795,86.2213148 L135.124789,87.2195135 C133.783491,87.3001285 132.440619,87.3392716 131.097628,87.3373225 L131.099079,86.3373235 C132.421624,86.3392429 133.744005,86.3006972 135.064795,86.2213148 Z M127.136029,86.2107483 L127.073774,87.2088086 C125.732296,87.1251323 124.393302,87.0008057 123.058495,86.8363814 L123.180753,85.8438831 C124.495671,86.0058573 125.814655,86.128326 127.136029,86.2107483 Z M119.238419,85.2378522 L119.057048,86.2212668 C117.73659,85.9777344 116.42326,85.6951175 115.118999,85.37419 L115.357933,84.4031542 C116.643175,84.7194019 117.93731,84.9978883 119.238419,85.2378522 Z M111.491733,83.3297842 L111.195948,84.2850386 C109.911893,83.887443 108.640245,83.4527103 107.383182,82.9818963 L107.733923,82.045424 C108.972882,82.509457 110.226204,82.9379248 111.491733,83.3297842 Z M104.078039,80.5546143 L103.673891,81.4693076 C102.442039,80.9250259 101.228533,80.3459758 100.035755,79.7335525 L100.49251,78.8439599 C101.668007,79.4475103 102.86397,80.0181895 104.078039,80.5546143 Z M97.0424236,76.9435187 L96.5345038,77.8049231 C95.3723407,77.1196636 94.2352594,76.4025206 93.1257944,75.6552791 L93.6844209,74.8258597 C94.7772878,75.5619222 95.8974586,76.2683999 97.0424236,76.9435187 Z M90.4489847,72.4990484 L89.8401945,73.2923797 C88.7670606,72.4688734 87.7268319,71.6169434 86.7221178,70.7388098 L87.3802015,69.9858651 C88.3688689,70.8499736 89.392656,71.6884381 90.4489847,72.4990484 Z M84.4610604,67.2578232 L83.753929,67.9649054 C82.7937202,67.0046297 81.8756034,66.0201261 81.0021598,65.0140744 L81.7572795,64.3584874 C82.6152571,65.346725 83.5173634,66.3140605 84.4610604,67.2578232 Z M79.2539882,61.2474688 L78.4514782,61.8441076 C77.6378815,60.749778 76.8770812,59.6364917 76.1714926,58.5073674 L77.0195294,57.97743 C77.7107446,59.0835532 78.4563472,60.1746007 79.2539882,61.2474688 Z M75.0494095,54.495405 L74.1578421,54.9482932 C73.538616,53.7292687 72.9841451,52.4980363 72.4965101,51.2580542 L73.4271341,50.8920773 C73.9030402,52.1022346 74.444458,53.304482 75.0494095,54.495405 Z M72.1624542,47.1139913 L71.1986433,47.3805783 C70.8339725,46.0621581 70.5459982,44.7399053 70.3362994,43.417411 L71.3239605,43.2608044 C71.5277327,44.5459219 71.8077136,45.8314727 72.1624542,47.1139913 Z M70.9404294,39.3505189 L69.9411171,39.3875996 C69.8906285,38.0269492 69.9251422,36.6718026 70.045609,35.3255167 L71.0416294,35.4146415 C70.9249355,36.7187641 70.8914952,38.0317615 70.9404294,39.3505189 Z M71.6217067,31.6259312 L70.644667,31.4128742 C70.931801,30.096131 71.3042511,28.792983 71.7623817,27.506121 L72.7044623,27.8415074 C72.2605665,29.0883849 71.8997942,30.3506741 71.6217067,31.6259312 Z M74.4074269,24.4181058 L73.6470907,23.768576 C74.6182046,22.631795 75.9046595,21.8862393 77.3824921,21.5870692 L77.5809057,22.5671876 C76.3198376,22.8224763 75.2318984,23.4529836 74.4074269,24.4181058 Z M81.3298867,22.8308007 L81.6291549,21.8766317 C82.8836998,22.2701107 84.1323132,22.9221911 85.3212795,23.8128369 L84.7217445,24.6131854 C83.6214081,23.7889317 82.4737056,23.1895513 81.3298867,22.8308007 Z M87.5208086,27.345546 L88.2989859,26.7175013 C89.1203544,27.735216 89.8726509,28.8801883 90.5435638,30.1428739 L89.6604802,30.6120897 C89.0190376,29.4048682 88.3017186,28.3131306 87.5208086,27.345546 Z M91.2283607,34.2291894 L92.1727342,33.9003145 C92.6022888,35.1337926 92.9657574,36.4397643 93.2593258,37.8146717 L92.28137,38.0234835 C91.9963994,36.6888435 91.64409,35.422968 91.2283607,34.2291894 Z M92.8886831,41.8323233 L93.8827653,41.7236928 C94.0246985,43.0225308 94.1111617,44.3682489 94.1405286,45.7593677 L93.1407514,45.7804733 C93.1119962,44.4183323 93.0274088,43.1018088 92.8886831,41.8323233 Z M92.8110996,49.6592666 L93.7816857,49.9000206 C93.4489183,51.2415535 92.8946157,52.5201997 92.1304665,53.7207054 L91.2868658,53.1837344 C91.9936668,52.0733246 92.5047046,50.8944803 92.8110996,49.6592666 Z M88.7457931,56.1551406 L89.4160844,56.8972386 C88.4419376,57.7771253 87.3315738,58.5839705 86.0984365,59.3095371 L85.5913168,58.4476615 C86.7674781,57.755619 87.8231016,56.9885508 88.7457931,56.1551406 Z M82.0824146,60.1470048 L82.4500817,61.0769623 C81.2309728,61.558948 79.9385553,61.9754615 78.5831165,62.3229449 L78.3347847,61.3542699 C79.6502887,61.0170242 80.9028629,60.6133513 82.0824146,60.1470048 Z M74.3979428,62.1361561 L74.5414351,63.1258075 C73.2346158,63.3152868 71.8895178,63.4467155 70.5134669,63.5187955 L70.4611568,62.5201646 C71.8069419,62.44967 73.1216199,62.3212136 74.3979428,62.1361561 Z M66.4944761,62.5614284 L66.4642415,63.5609713 C65.1369423,63.5208225 63.7918238,63.428533 62.4340296,63.2837987 L62.5400243,62.289432 C63.8727341,62.4314924 65.192583,62.5220482 66.4944761,62.5614284 Z M58.6878058,61.7406571 L58.5125436,62.7251789 C57.2010176,62.4917043 55.8845154,62.210823 54.5666693,61.8826381 L54.8083201,60.9122748 C56.1042301,61.234997 57.3985905,61.5111542 58.6878058,61.7406571 Z M50.9649261,59.8190536 L50.66007,60.771452 C49.3893054,60.364689 48.1222088,59.9145069 46.8613615,59.4211517 L47.2257482,58.489904 C48.4669783,58.9755832 49.7142215,59.4187116 50.9649261,59.8190536 Z M43.5463022,56.9164376 L43.1249256,57.8233233 C41.9143644,57.2608465 40.7133379,56.658413 39.5237065,56.0162913 L39.9986954,55.1362996 C41.1707198,55.7689176 42.3538672,56.362383 43.5463022,56.9164376 Z M36.5238735,53.1249747 L35.9975833,53.9752796 C34.8626941,53.272848 33.7413134,52.5335851 32.6348017,51.7577333 L33.2089063,50.9389513 C34.2997773,51.7038364 35.405213,52.4325876 36.5238735,53.1249747 Z M29.9921687,48.5446622 L29.3727761,49.3297435 C28.325563,48.5035411 27.2944415,47.643431 26.28042,46.7496125 L26.9416646,45.9994421 C27.9420545,46.881245 28.9592202,47.7297138 29.9921687,48.5446622 Z M23.9961622,43.2584666 L23.2956227,43.9720802 C22.344535,43.0384174 21.4110743,42.0736316 20.4959975,41.0778783 L21.2323028,40.4012288 C22.1357823,41.3843623 23.0573174,42.3368224 23.9961622,43.2584666 Z M18.6450843,37.4421367 L17.8763734,38.0817331 C17.0252348,37.0587762 16.1924325,36.0073526 15.3785423,34.9275793 L16.1770986,34.3256592 C16.9813538,35.3926499 17.8042054,36.4315106 18.6450843,37.4421367 Z M13.8828,31.1312696 L13.057521,31.6959949 C12.3067454,30.5988253 11.5744561,29.4756652 10.8610965,28.3266001 L11.710688,27.7991589 C12.4162333,28.935637 13.1404175,30.0463655 13.8828,31.1312696 Z M9.70093512,24.4022934 L8.82977136,24.893286 C8.17758359,23.736115 7.54362171,22.5552629 6.92823152,21.3507901 L7.81873488,20.8958134 C8.42793702,22.0881747 9.05545212,23.2570187 9.70093512,24.4022934 Z" fill="#0CADE3" fill-rule="nonzero"></path>
                </g>
            </g>
        </g>
    </g>
</svg>