<?xml version="1.0" encoding="UTF-8"?>
<svg width="168px" height="77px" viewBox="0 0 168 77" version="1.1" xmlns="http://www.w3.org/2000/svg" xmlns:xlink="http://www.w3.org/1999/xlink">
    <!-- Generator: Sketch 52.2 (67145) - http://www.bohemiancoding.com/sketch -->
    <title>flow_empty_arrow</title>
    <desc>Created with Sketch.</desc>
    <g id="页面-1" stroke="none" stroke-width="1" fill="none" fill-rule="evenodd">
        <g id="工作流-直接流程设定-copy-6" transform="translate(-442.000000, -257.000000)" fill="#0CADE3" fill-rule="nonzero">
            <path id="flow_empty_arrow" d="M447.864369,262.592618 C448.264492,263.525519 448.674852,264.445984 449.095326,265.353997 L448.187897,265.774201 C447.757817,264.845447 447.338256,263.903867 446.929338,262.94948 L443.172677,264.383242 L444.167742,254.370258 L451.58109,261.1741 L447.864369,262.592618 Z M608.086585,324.717341 L608.60547,325.572185 C607.448086,326.27471 606.279382,326.939315 605.100001,327.566064 L604.630727,326.683012 C605.79329,326.0652 606.94545,325.410002 608.086585,324.717341 Z M601.071584,328.443103 L601.48827,329.352154 C600.261379,329.914529 599.024597,330.437135 597.77873,330.920073 L597.417301,329.987673 C598.644521,329.511963 599.862876,328.997144 601.071584,328.443103 Z M593.670571,331.310102 L593.974358,332.262842 C592.68889,332.672721 591.395588,333.041389 590.095457,333.369007 L589.851107,332.39932 C591.131276,332.076732 592.404756,331.713715 593.670571,331.310102 Z M585.951468,333.253425 L586.134776,334.23648 C584.811815,334.48317 583.483828,334.688159 582.152034,334.851699 L582.030152,333.859155 C583.341415,333.698135 584.648917,333.496309 585.951468,333.253425 Z M578.064795,334.221315 L578.124789,335.219514 C576.783491,335.300129 575.440619,335.339272 574.097628,335.337322 L574.099079,334.337324 C575.421624,334.339243 576.744005,334.300697 578.064795,334.221315 Z M570.136029,334.210748 L570.073774,335.208809 C568.732296,335.125132 567.393302,335.000806 566.058495,334.836381 L566.180753,333.843883 C567.495671,334.005857 568.814655,334.128326 570.136029,334.210748 Z M562.238419,333.237852 L562.057048,334.221267 C560.73659,333.977734 559.42326,333.695117 558.118999,333.37419 L558.357933,332.403154 C559.643175,332.719402 560.93731,332.997888 562.238419,333.237852 Z M554.491733,331.329784 L554.195948,332.285039 C552.911893,331.887443 551.640245,331.45271 550.383182,330.981896 L550.733923,330.045424 C551.972882,330.509457 553.226204,330.937925 554.491733,331.329784 Z M547.078039,328.554614 L546.673891,329.469308 C545.442039,328.925026 544.228533,328.345976 543.035755,327.733552 L543.49251,326.84396 C544.668007,327.44751 545.86397,328.018189 547.078039,328.554614 Z M540.042424,324.943519 L539.534504,325.804923 C538.372341,325.119664 537.235259,324.402521 536.125794,323.655279 L536.684421,322.82586 C537.777288,323.561922 538.897459,324.2684 540.042424,324.943519 Z M533.448985,320.499048 L532.840195,321.29238 C531.767061,320.468873 530.726832,319.616943 529.722118,318.73881 L530.380202,317.985865 C531.368869,318.849974 532.392656,319.688438 533.448985,320.499048 Z M527.46106,315.257823 L526.753929,315.964905 C525.79372,315.00463 524.875603,314.020126 524.00216,313.014074 L524.757279,312.358487 C525.615257,313.346725 526.517363,314.31406 527.46106,315.257823 Z M522.253988,309.247469 L521.451478,309.844108 C520.637881,308.749778 519.877081,307.636492 519.171493,306.507367 L520.019529,305.97743 C520.710745,307.083553 521.456347,308.174601 522.253988,309.247469 Z M518.049409,302.495405 L517.157842,302.948293 C516.538616,301.729269 515.984145,300.498036 515.49651,299.258054 L516.427134,298.892077 C516.90304,300.102235 517.444458,301.304482 518.049409,302.495405 Z M515.162454,295.113991 L514.198643,295.380578 C513.833973,294.062158 513.545998,292.739905 513.336299,291.417411 L514.323961,291.260804 C514.527733,292.545922 514.807714,293.831473 515.162454,295.113991 Z M513.940429,287.350519 L512.941117,287.3876 C512.890628,286.026949 512.925142,284.671803 513.045609,283.325517 L514.041629,283.414641 C513.924935,284.718764 513.891495,286.031761 513.940429,287.350519 Z M514.621707,279.625931 L513.644667,279.412874 C513.931801,278.096131 514.304251,276.792983 514.762382,275.506121 L515.704462,275.841507 C515.260566,277.088385 514.899794,278.350674 514.621707,279.625931 Z M517.407427,272.418106 L516.647091,271.768576 C517.618205,270.631795 518.90466,269.886239 520.382492,269.587069 L520.580906,270.567188 C519.319838,270.822476 518.231898,271.452984 517.407427,272.418106 Z M524.329887,270.830801 L524.629155,269.876632 C525.8837,270.270111 527.132313,270.922191 528.32128,271.812837 L527.721744,272.613185 C526.621408,271.788932 525.473706,271.189551 524.329887,270.830801 Z M530.520809,275.345546 L531.298986,274.717501 C532.120354,275.735216 532.872651,276.880188 533.543564,278.142874 L532.66048,278.61209 C532.019038,277.404868 531.301719,276.313131 530.520809,275.345546 Z M534.228361,282.229189 L535.172734,281.900315 C535.602289,283.133793 535.965757,284.439764 536.259326,285.814672 L535.28137,286.023484 C534.996399,284.688843 534.64409,283.422968 534.228361,282.229189 Z M535.888683,289.832323 L536.882765,289.723693 C537.024699,291.022531 537.111162,292.368249 537.140529,293.759368 L536.140751,293.780473 C536.111996,292.418332 536.027409,291.101809 535.888683,289.832323 Z M535.8111,297.659267 L536.781686,297.900021 C536.448918,299.241553 535.894616,300.5202 535.130467,301.720705 L534.286866,301.183734 C534.993667,300.073325 535.504705,298.89448 535.8111,297.659267 Z M531.745793,304.155141 L532.416084,304.897239 C531.441938,305.777125 530.331574,306.58397 529.098436,307.309537 L528.591317,306.447661 C529.767478,305.755619 530.823102,304.988551 531.745793,304.155141 Z M525.082415,308.147005 L525.450082,309.076962 C524.230973,309.558948 522.938555,309.975461 521.583116,310.322945 L521.334785,309.35427 C522.650289,309.017024 523.902863,308.613351 525.082415,308.147005 Z M517.397943,310.136156 L517.541435,311.125807 C516.234616,311.315287 514.889518,311.446715 513.513467,311.518796 L513.461157,310.520165 C514.806942,310.44967 516.12162,310.321214 517.397943,310.136156 Z M509.494476,310.561428 L509.464241,311.560971 C508.136942,311.520823 506.791824,311.428533 505.43403,311.283799 L505.540024,310.289432 C506.872734,310.431492 508.192583,310.522048 509.494476,310.561428 Z M501.687806,309.740657 L501.512544,310.725179 C500.201018,310.491704 498.884515,310.210823 497.566669,309.882638 L497.80832,308.912275 C499.10423,309.234997 500.398591,309.511154 501.687806,309.740657 Z M493.964926,307.819054 L493.66007,308.771452 C492.389305,308.364689 491.122209,307.914507 489.861362,307.421152 L490.225748,306.489904 C491.466978,306.975583 492.714222,307.418712 493.964926,307.819054 Z M486.546302,304.916438 L486.124926,305.823323 C484.914364,305.260847 483.713338,304.658413 482.523706,304.016291 L482.998695,303.1363 C484.17072,303.768918 485.353867,304.362383 486.546302,304.916438 Z M479.523874,301.124975 L478.997583,301.97528 C477.862694,301.272848 476.741313,300.533585 475.634802,299.757733 L476.208906,298.938951 C477.299777,299.703836 478.405213,300.432588 479.523874,301.124975 Z M472.992169,296.544662 L472.372776,297.329744 C471.325563,296.503541 470.294441,295.643431 469.28042,294.749612 L469.941665,293.999442 C470.942055,294.881245 471.95922,295.729714 472.992169,296.544662 Z M466.996162,291.258467 L466.295623,291.97208 C465.344535,291.038417 464.411074,290.073632 463.495997,289.077878 L464.232303,288.401229 C465.135782,289.384362 466.057317,290.336822 466.996162,291.258467 Z M461.645084,285.442137 L460.876373,286.081733 C460.025235,285.058776 459.192433,284.007353 458.378542,282.927579 L459.177099,282.325659 C459.981354,283.39265 460.804205,284.431511 461.645084,285.442137 Z M456.8828,279.13127 L456.057521,279.695995 C455.306745,278.598825 454.574456,277.475665 453.861096,276.3266 L454.710688,275.799159 C455.416233,276.935637 456.140417,278.046365 456.8828,279.13127 Z M452.700935,272.402293 L451.829771,272.893286 C451.177584,271.736115 450.543622,270.555263 449.928232,269.35079 L450.818735,268.895813 C451.427937,270.088175 452.055452,271.257019 452.700935,272.402293 Z"></path>
        </g>
    </g>
</svg>