<?xml version="1.0" encoding="UTF-8"?>
<svg width="155px" height="137px" viewBox="0 0 155 137" version="1.1" xmlns="http://www.w3.org/2000/svg" xmlns:xlink="http://www.w3.org/1999/xlink">
    <!-- Generator: Sketch 52.2 (67145) - http://www.bohemiancoding.com/sketch -->
    <title>flow_empty</title>
    <desc>Created with Sketch.</desc>
    <defs>
        <path d="M55,19 L55,6 C55,2.6862915 57.6862915,6.08718376e-16 61,0 L94,0 C97.3137085,-6.08718376e-16 100,2.6862915 100,6 L100,19 C100,22.3137085 97.3137085,25 94,25 L61,25 C57.6862915,25 55,22.3137085 55,19 Z" id="path-1"></path>
        <mask id="mask-2" maskContentUnits="userSpaceOnUse" maskUnits="objectBoundingBox" x="0" y="0" width="45" height="25" fill="white">
            <use xlink:href="#path-1"></use>
        </mask>
        <path d="M0,76 L0,64 C-4.05812251e-16,60.6862915 2.6862915,58 6,58 L39,58 C42.3137085,58 45,60.6862915 45,64 L45,76 C45,79.3137085 42.3137085,82 39,82 L6,82 C2.6862915,82 4.05812251e-16,79.3137085 0,76 Z" id="path-3"></path>
        <mask id="mask-4" maskContentUnits="userSpaceOnUse" maskUnits="objectBoundingBox" x="0" y="0" width="45" height="24" fill="white">
            <use xlink:href="#path-3"></use>
        </mask>
        <path d="M55,131 L55,118 C55,114.686292 57.6862915,112 61,112 L94,112 C97.3137085,112 100,114.686292 100,118 L100,131 C100,134.313708 97.3137085,137 94,137 L61,137 C57.6862915,137 55,134.313708 55,131 Z" id="path-5"></path>
        <mask id="mask-6" maskContentUnits="userSpaceOnUse" maskUnits="objectBoundingBox" x="0" y="0" width="45" height="25" fill="white">
            <use xlink:href="#path-5"></use>
        </mask>
        <path d="M55,76 L55,64 C55,60.6862915 57.6862915,58 61,58 L94,58 C97.3137085,58 100,60.6862915 100,64 L100,76 C100,79.3137085 97.3137085,82 94,82 L61,82 C57.6862915,82 55,79.3137085 55,76 Z" id="path-7"></path>
        <mask id="mask-8" maskContentUnits="userSpaceOnUse" maskUnits="objectBoundingBox" x="0" y="0" width="45" height="24" fill="white">
            <use xlink:href="#path-7"></use>
        </mask>
        <path d="M110,76 L110,64 C110,60.6862915 112.686292,58 116,58 L149,58 C152.313708,58 155,60.6862915 155,64 L155,76 C155,79.3137085 152.313708,82 149,82 L116,82 C112.686292,82 110,79.3137085 110,76 Z" id="path-9"></path>
        <mask id="mask-10" maskContentUnits="userSpaceOnUse" maskUnits="objectBoundingBox" x="0" y="0" width="45" height="24" fill="white">
            <use xlink:href="#path-9"></use>
        </mask>
    </defs>
    <g id="页面-1" stroke="none" stroke-width="1" fill="none" fill-rule="evenodd">
        <g id="工作流-直接流程设定开始" transform="translate(-623.000000, -356.000000)">
            <g id="分组-3" transform="translate(599.000000, 323.000000)">
                <g id="flow_empty" transform="translate(24.000000, 33.000000)">
                    <use id="路径" stroke="#B2C7E1" mask="url(#mask-2)" stroke-width="4" fill="#EDF5FF" stroke-dasharray="4,1" xlink:href="#path-1"></use>
                    <use id="路径-copy" stroke="#B2C7E1" mask="url(#mask-4)" stroke-width="4" fill="#FFFFFF" stroke-dasharray="4,1" xlink:href="#path-3"></use>
                    <use id="路径-copy-4" stroke="#B2C7E1" mask="url(#mask-6)" stroke-width="4" fill="#EDF5FF" stroke-dasharray="4,1" xlink:href="#path-5"></use>
                    <use id="路径-copy-3" stroke="#B2C7E1" mask="url(#mask-8)" stroke-width="4" fill="#EDF5FF" stroke-dasharray="4,1" xlink:href="#path-7"></use>
                    <use id="路径-copy-5" stroke="#B2C7E1" mask="url(#mask-10)" stroke-width="4" fill="#FFFFFF" stroke-dasharray="4,1" xlink:href="#path-9"></use>
                    <path d="M73,82 L73,93.3606466 C73,95.5697856 71.209139,97.3606466 69,97.3606466 L27,97.3606466 C23.6862915,97.3606466 21,100.046938 21,103.360647 L21,112" id="路径-4-copy-2" stroke="#B2C7E1" stroke-width="2" transform="translate(47.000000, 97.000000) scale(1, -1) translate(-47.000000, -97.000000) "></path>
                    <path d="M133,82 L133,93.3606466 C133,95.5697856 131.209139,97.3606466 129,97.3606466 L87,97.3606466 C83.6862915,97.3606466 81,100.046938 81,103.360647 L81,112" id="路径-4-copy-3" stroke="#B2C7E1" stroke-width="2" transform="translate(107.000000, 97.000000) scale(-1, -1) translate(-107.000000, -97.000000) "></path>
                    <path d="M77,81 L77,113" id="路径-5-copy" stroke="#B2C7E1" stroke-width="2"></path>
                    <path d="M73.5,25 L73.5,36.3606466 C73.5,38.5697856 71.709139,40.3606466 69.5,40.3606466 L27.5,40.3606466 C24.1862915,40.3606466 21.5,43.0469381 21.5,46.3606466 L21.5,55" id="路径-4" stroke="#B2C7E1" stroke-width="2"></path>
                    <path d="M132.5,25 L132.5,36.3606466 C132.5,38.5697856 130.709139,40.3606466 128.5,40.3606466 L86.5,40.3606466 C83.1862915,40.3606466 80.5,43.0469381 80.5,46.3606466 L80.5,55" id="路径-4-copy" stroke="#B2C7E1" stroke-width="2" transform="translate(106.500000, 40.000000) scale(-1, 1) translate(-106.500000, -40.000000) "></path>
                    <path d="M77,25 L77,55" id="路径-5" stroke="#B2C7E1" stroke-width="2"></path>
                    <polygon id="三角形" fill="#B2C7E1" transform="translate(22.000000, 54.000000) scale(1, -1) translate(-22.000000, -54.000000) " points="22 51 27 57 17 57"></polygon>
                    <polygon id="三角形-copy" fill="#B2C7E1" transform="translate(77.000000, 54.000000) scale(1, -1) translate(-77.000000, -54.000000) " points="77 51 82 57 72 57"></polygon>
                    <polygon id="三角形-copy-2" fill="#B2C7E1" transform="translate(132.000000, 54.000000) scale(1, -1) translate(-132.000000, -54.000000) " points="132 51 137 57 127 57"></polygon>
                </g>
            </g>
        </g>
    </g>
</svg>