<?xml version="1.0" encoding="utf-8"?>
<!-- Generator: Adobe Illustrator 21.0.0, SVG Export Plug-In . SVG Version: 6.00 Build 0)  -->
<svg version="1.1" id="图层_1" xmlns="http://www.w3.org/2000/svg" xmlns:xlink="http://www.w3.org/1999/xlink" x="0px" y="0px"
	 viewBox="0 0 18 18" style="enable-background:new 0 0 18 18;" xml:space="preserve">
<style type="text/css">
	.st0{fill:#AAAAAA;}
</style>
<title>flow_copy_no</title>
<desc>Created with Sketch.</desc>
<g>
	<path class="st0" d="M4.6,11.2h2.7v2.7c0,0.5,0.3,0.8,0.6,0.8s0.6-0.4,0.6-0.8v-2.7h2.7c0.5,0,0.8-0.3,0.8-0.7s-0.4-0.7-0.8-0.7
		H8.6V7.1c0-0.5-0.3-0.8-0.6-0.8S7.4,6.7,7.4,7.1v2.7H4.6c-0.5,0-0.8,0.3-0.8,0.7S4.2,11.2,4.6,11.2z"/>
	<path class="st0" d="M13.1,3.5H2.3c-0.8,0-1.5,0.7-1.5,1.4v10.8c0,0.8,0.7,1.4,1.5,1.4h10.9c0.8,0,1.5-0.7,1.5-1.4V4.9
		C14.6,4.1,13.9,3.5,13.1,3.5z M12.9,5.1v10.4H2.5V5.1H12.9z"/>
	<path class="st0" d="M15.7,0.8H4.3c-0.5,0-0.8,0.4-0.8,0.8c0,0.5,0.4,0.8,0.8,0.8h11.3v11.3c0,0.5,0.4,0.8,0.8,0.8
		c0.5,0,0.8-0.4,0.8-0.8V2.2C17.2,1.5,16.5,0.8,15.7,0.8z"/>
</g>
</svg>
