<?xml version="1.0" encoding="UTF-8"?>
<svg width="54px" height="54px" viewBox="0 0 54 54" version="1.1" xmlns="http://www.w3.org/2000/svg" xmlns:xlink="http://www.w3.org/1999/xlink">
    <!-- Generator: Sketch 52.2 (67145) - http://www.bohemiancoding.com/sketch -->
    <title>home_bg</title>
    <desc>Created with Sketch.</desc>
    <g id="页面-1" stroke="none" stroke-width="1" fill="none" fill-rule="evenodd">
        <g id="工作流-首页" transform="translate(-563.000000, -203.000000)">
            <g id="分组-5" transform="translate(490.000000, 168.000000)">
                <g id="home_bg" transform="translate(73.000000, 35.000000)">
                    <rect id="矩形" fill="#2E73FF" x="0" y="0" width="54" height="54" rx="3.2"></rect>
                    <g id="分组" transform="translate(14.259375, 12.150000)" stroke="#FFFFFF">
                        <path d="M22.1448938,0.0588515625 L18.4014281,0.0588515625 L7.07982188,0.0588515625 L3.33635625,0.0588515625 C1.52102813,0.0588515625 0.04944375,1.53043594 0.04944375,3.34576406 L0.04944375,6.72397031 L0.04944375,26.3541516 C0.04944375,26.9214891 0.193134375,27.4552453 0.446175,27.9209953 C0.4968,28.0141453 0.551728125,28.1045109 0.610790625,28.1919234 C0.699384375,28.3231266 0.797175,28.4474953 0.90331875,28.5642703 C0.974109375,28.6420641 1.04852813,28.7164828 1.12632188,28.7872734 C1.16530313,28.8226266 1.20495938,28.8570516 1.24562813,28.8905484 C1.52971875,29.1250266 1.8538875,29.3126766 2.20615313,29.4416859 C2.256525,29.4600797 2.3074875,29.4773766 2.35895625,29.4934078 C2.6163,29.5733953 2.88714375,29.6226703 3.16718438,29.6368453 C3.22329375,29.6397141 3.27965625,29.6411484 3.33635625,29.6411484 L22.1448938,29.6411484 C22.2015938,29.6411484 22.2580406,29.6397141 22.3140656,29.6368453 C23.2103813,29.5914516 24.0120281,29.1868734 24.5779313,28.5642703 C24.6132844,28.5253734 24.6477094,28.4855484 24.6812906,28.4449641 C24.7816969,28.3232109 24.8735813,28.1941172 24.9559313,28.0586109 C25.0108594,27.9682453 25.0614844,27.8750109 25.1076375,27.7792453 C25.1537906,27.6834797 25.1954719,27.5850141 25.2323438,27.4843547 C25.3613531,27.1319203 25.4318063,26.7513047 25.4318063,26.3541516 L25.4318063,6.72397031 L25.4318063,3.34576406 C25.4318063,1.53043594 23.9602219,0.0588515625 22.1448938,0.0588515625 Z" id="Stroke-2" stroke-width="2.304"></path>
                        <path d="M18.6053456,8.5501575 L19.3313081,8.5501575 C20.3686988,8.5501575 21.2097488,9.46992938 21.2097488,10.6046044 L21.2097488,12.1922888 C21.2097488,13.3269638 20.3686988,14.2467356 19.3313081,14.2467356 L18.6053456,14.2467356" id="Stroke-4" stroke-width="1.6896" stroke-linecap="round"></path>
                        <path d="M6.87590438,15.4532728 L6.14994188,15.4532728 C5.11255125,15.4532728 4.27150125,16.3730447 4.27150125,17.5077197 L4.27150125,19.0954041 C4.27150125,20.2300791 5.11255125,21.1498509 6.14994188,21.1498509 L6.87590438,21.1498509" id="Stroke-6" stroke-width="1.6896" stroke-linecap="round"></path>
                        <path d="M15.7621359,9.62892562 L9.71911406,9.62892562 C9.49130156,9.62892562 9.30652031,9.44422875 9.30652031,9.21641625 L9.30652031,6.67740375 C9.30652031,6.44950687 9.49130156,6.26481 9.71911406,6.26481 L15.7621359,6.26481 C15.9899484,6.26481 16.1747297,6.44950687 16.1747297,6.67740375 L16.1747297,9.21641625 C16.1747297,9.44422875 15.9899484,9.62892562 15.7621359,9.62892562 Z" id="Stroke-8" stroke-width="1.6896" stroke-linecap="round"></path>
                        <path d="M15.7621359,16.5320409 L9.71911406,16.5320409 C9.49130156,16.5320409 9.30652031,16.3473441 9.30652031,16.1195316 L9.30652031,13.5805191 C9.30652031,13.3526222 9.49130156,13.1679253 9.71911406,13.1679253 L15.7621359,13.1679253 C15.9899484,13.1679253 16.1747297,13.3526222 16.1747297,13.5805191 L16.1747297,16.1195316 C16.1747297,16.3473441 15.9899484,16.5320409 15.7621359,16.5320409 Z" id="Stroke-10" stroke-width="1.6896" stroke-linecap="round"></path>
                        <path d="M15.7621359,23.4351563 L9.71911406,23.4351563 C9.49130156,23.4351563 9.30652031,23.2504594 9.30652031,23.0226469 L9.30652031,20.4836344 C9.30652031,20.2557375 9.49130156,20.0710406 9.71911406,20.0710406 L15.7621359,20.0710406 C15.9899484,20.0710406 16.1747297,20.2557375 16.1747297,20.4836344 L16.1747297,23.0226469 C16.1747297,23.2504594 15.9899484,23.4351563 15.7621359,23.4351563 Z" id="Stroke-12" stroke-width="1.6896" stroke-linecap="round"></path>
                    </g>
                </g>
            </g>
        </g>
    </g>
</svg>