<?xml version="1.0" encoding="utf-8"?>
<!-- Generator: Adobe Illustrator 24.2.3, SVG Export Plug-In . SVG Version: 6.00 Build 0)  -->
<svg version="1.1" id="图层_1" xmlns="http://www.w3.org/2000/svg" xmlns:xlink="http://www.w3.org/1999/xlink" x="0px" y="0px"
	 viewBox="0 0 32 32" style="enable-background:new 0 0 32 32;" xml:space="preserve">
<style type="text/css">
	.st0{fill-rule:evenodd;clip-rule:evenodd;fill:#FFFFFF;fill-opacity:0;}
	.st1{fill:#AAAAAA;}
</style>
<rect id="矩形" class="st0" width="32" height="32"/>
<path id="形状" class="st1" d="M6.1,30.7l-3.8-3C2.1,27.6,2,27.3,2,27V2.5C2,2,2.4,1,3.4,1h25C29.6,1,30,1.8,30,2.4V27
	c0,0.3-0.2,0.6-0.4,0.8l-4.2,3C25,31,24.4,31.1,24,30.8l-4.5-2.5l-2.9,2.4c-0.5,0.4-1.1,0.4-1.6,0l-3.3-2.5l-4.1,2.5
	C7.1,31.1,6.6,31,6.1,30.7z M19.3,26c0.2,0,0.4,0.1,0.6,0.2l4.6,2.6l3.1-2.2V3H4.3v23.6L7,28.7l4-2.5c0.4-0.3,1-0.2,1.4,0.1l3.2,2.4
	l2.8-2.3C18.8,26.1,19,26,19.3,26L19.3,26z M29,27.2h0.1H29z M14.8,10.3H7.3c-0.6,0-1.2-0.4-1.2-1c0-0.5,0.5-1,1.2-1h7.5
	c0.6,0,1.2,0.4,1.2,1C16,9.8,15.5,10.3,14.8,10.3L14.8,10.3z M18.5,15.4H7.3c-0.6,0-1.2-0.4-1.2-1c0-0.5,0.5-1,1.2-1h11.1
	c0.6,0,1.2,0.4,1.2,1C19.6,15,19.1,15.4,18.5,15.4z M21.6,20.7H7.3c-0.6,0-1.2-0.4-1.2-1c0-0.5,0.5-1,1.2-1h14.3
	c0.6,0,1.2,0.4,1.2,1C22.8,20.2,22.2,20.7,21.6,20.7L21.6,20.7z"/>
</svg>
