<?xml version="1.0" encoding="UTF-8"?>
<svg width="20px" height="20px" viewBox="0 0 20 20" version="1.1" xmlns="http://www.w3.org/2000/svg" xmlns:xlink="http://www.w3.org/1999/xlink">
    <!-- Generator: Sketch 52.2 (67145) - http://www.bohemiancoding.com/sketch -->
    <title>list_edit_p</title>
    <desc>Created with Sketch.</desc>
    <g id="页面-1" stroke="none" stroke-width="1" fill="none" fill-rule="evenodd">
        <g id="Group-185" transform="translate(0.500000, 0.500000)">
            <rect id="Rectangle-48-Copy-13" x="0" y="0" width="19" height="19"></rect>
            <g id="delete" transform="translate(1.168945, 1.206055)" fill="#0CADE3" fill-rule="nonzero">
                <path d="M2.17413866,16.4197899 C2.14100256,16.3920121 2.10727475,16.355901 2.07413866,16.3197899 C2.11082503,16.355901 2.14100256,16.3920121 2.17413866,16.4197899 Z M1.99475251,16.3183189 C1.96053029,16.2861511 1.92675251,16.2539833 1.89475251,16.2183189 C1.92630805,16.2539833 1.96053029,16.2861511 1.99475251,16.3183189 Z M16.4652557,2.56866455 C16.3391418,2.44255066 16.1557693,2.37224578 15.9778328,2.37224578 L12.5568123,2.37224578 L12.5568123,1.30643844 C12.5568123,0.585632324 11.97118,0 11.2503738,0 L5.41072083,0 C4.68991471,0 4.10428238,0.585632324 4.10428238,1.30643844 L4.10428238,2.37224578 L0.665866856,2.3722458 C0.300933838,2.3722458 0.00231933594,2.66868593 0.00231933594,3.03579332 C0.00231933594,3.40290071 0.29875947,3.69934084 0.665866856,3.69934084 L1.25149918,3.69934084 L1.25149918,15.247097 C1.25149918,15.9679031 1.8371315,16.5535355 2.55793762,16.5535355 L14.2894287,16.5535355 C15.0102348,16.5535355 15.5958672,15.9679031 15.5958672,15.247097 L15.5958672,3.69934082 L15.9774704,3.69934082 C16.3424034,3.69934082 16.6595001,3.40290069 16.6595001,3.0357933 C16.6598625,2.85966874 16.5913696,2.69477844 16.4652557,2.56866455 Z M5.40854646,1.3104248 L11.2445755,1.3104248 L11.2445755,2.38348007 L5.40854646,2.38348007 L5.40854646,1.3104248 Z M14.2876167,15.245285 L2.55793762,15.245285 L2.55793762,3.69934082 L4.24815369,3.69934082 L14.2872543,3.69934082 L14.2872543,15.245285 L14.2876167,15.245285 Z M8.32184982,5.92300415 C7.95293044,5.92300415 7.65467834,6.22125626 7.65467834,6.59017562 L7.65467834,12.7802658 C7.65467834,13.1491852 7.95293046,13.4474373 8.32184982,13.4474373 C8.69076918,13.4474373 8.98902129,13.1491852 8.98902129,12.7802658 L8.98902131,6.59017562 C8.98902131,6.22161865 8.6907692,5.92300415 8.32184982,5.92300415 Z M4.70803451,5.92300415 C4.33911513,5.92300415 4.04086304,6.22125626 4.04086304,6.59017562 L4.04086304,12.7802658 C4.04086304,13.1491852 4.33911515,13.4474373 4.70803451,13.4474373 C5.07695387,13.4474373 5.37520598,13.1491852 5.37520598,12.7802658 L5.375206,6.59017562 C5.375206,6.22161865 5.0765915,5.92300415 4.70803451,5.92300415 Z M11.8987007,5.92300415 C11.5297813,5.92300415 11.2315292,6.22125626 11.2315292,6.59017562 L11.2315292,12.7802658 C11.2315292,13.1491852 11.5297814,13.4474373 11.8987007,13.4474373 C12.2676201,13.4474373 12.5658722,13.1491852 12.5658722,12.7802658 L12.5658722,6.59017562 C12.5658722,6.22161865 12.2676201,5.92300415 11.8987007,5.92300415 Z" id="Shape"></path>
            </g>
        </g>
    </g>
</svg>