<?xml version="1.0" encoding="UTF-8"?>
<svg width="20px" height="20px" viewBox="0 0 20 20" version="1.1" xmlns="http://www.w3.org/2000/svg" xmlns:xlink="http://www.w3.org/1999/xlink">
    <!-- Generator: Sketch 52.2 (67145) - http://www.bohemiancoding.com/sketch -->
    <title>list_copy_p</title>
    <desc>Created with Sketch.</desc>
    <g id="页面-1" stroke="none" stroke-width="1" fill="none" fill-rule="evenodd">
        <g id="Group-104">
            <rect id="Rectangle-41-Copy-4" x="0.4" y="0.4" width="19.2" height="19.2"></rect>
            <g id="switcher" transform="translate(1.600000, 1.600000)" fill="#0CADE3" fill-rule="nonzero">
                <path d="M13.05,3.75 L13.05,15.45 L1.35,15.45 L1.35,3.75 L13.05,3.75 Z M13.05,2.4 L1.35,2.4 C0.60375,2.4 0,3.00375 0,3.75 L0,15.45 C0,16.19625 0.60375,16.8 1.35,16.8 L13.05,16.8 C13.79625,16.8 14.4,16.19625 14.4,15.45 L14.4,3.75 C14.4,3.00375 13.79625,2.4 13.05,2.4 Z M15.45,0 L3.075,0 C2.701875,0 2.4,0.301875 2.4,0.675 C2.4,1.048125 2.701875,1.35 3.075,1.35 L15.45,1.35 L15.45,13.725 C15.45,14.098125 15.751875,14.4 16.125,14.4 C16.498125,14.4 16.8,14.098125 16.8,13.725 L16.8,1.35 C16.8,0.60375 16.19625,0 15.45,0 Z" id="Shape"></path>
                <path d="M10.725,8.925 L3.675,8.925 C3.301875,8.925 3,9.226875 3,9.6 C3,9.973125 3.301875,10.275 3.675,10.275 L10.725,10.275 C11.098125,10.275 11.4,9.973125 11.4,9.6 C11.4,9.226875 11.098125,8.925 10.725,8.925 Z" id="Path"></path>
                <path d="M10.725,8.925 L3.675,8.925 C3.301875,8.925 3,9.226875 3,9.6 C3,9.973125 3.301875,10.275 3.675,10.275 L10.725,10.275 C11.098125,10.275 11.4,9.973125 11.4,9.6 C11.4,9.226875 11.098125,8.925 10.725,8.925 Z" id="Path" transform="translate(7.200000, 9.600000) rotate(-270.000000) translate(-7.200000, -9.600000) "></path>
            </g>
        </g>
    </g>
</svg>