<?xml version="1.0" standalone="no"?><!DOCTYPE svg PUBLIC "-//W3C//DTD SVG 1.1//EN" "http://www.w3.org/Graphics/SVG/1.1/DTD/svg11.dtd"><svg t="1562514524076" class="icon" viewBox="0 0 1024 1024" version="1.1" xmlns="http://www.w3.org/2000/svg" p-id="2702" xmlns:xlink="http://www.w3.org/1999/xlink" width="200" height="200"><defs><style type="text/css"></style></defs><path d="M510.72 58.8096c-253.1904 0-458.44096 205.25056-458.44096 458.44224C52.27904 770.44224 257.5296 975.6928 510.72 975.6928c253.19168 0 458.44096-205.25056 458.44096-458.43968C969.16096 264.06016 763.91168 58.8096 510.72 58.8096L510.72 58.8096zM503.55584 819.02464c-28.13056 0-50.9376-22.80704-50.9376-50.9376 0-28.1344 22.80704-50.94016 50.9376-50.94016 28.13312 0 50.9376 22.80448 50.9376 50.94016C554.49344 796.2176 531.68896 819.02464 503.55584 819.02464L503.55584 819.02464zM556.34816 607.35488c0 32.06272-22.80192 58.05952-50.9376 58.05952-28.13312 0-50.9376-25.99808-50.9376-58.05952L454.47296 265.03424c0-32.06784 22.80448-58.0608 50.9376-58.0608 28.1344 0 50.9376 25.99296 50.9376 58.0608L556.34816 607.35488 556.34816 607.35488z" p-id="2703" fill="#E64340"></path></svg>