<svg xmlns="http://www.w3.org/2000/svg" width="14" height="14" viewBox="0 0 14 14"><defs><style>.a{fill:none;}.b{fill:#2c7ef8;}</style></defs><g transform="translate(-1509 -246)"><g transform="translate(1509 246)"><rect class="a" width="14" height="14" transform="translate(0)"/></g><g transform="translate(1509.459 246)"><path class="b" d="M139.094,107.93a2.641,2.641,0,0,0-2.638,2.555h-3.332a.673.673,0,0,0,0,1.346h.743v7.529a2.388,2.388,0,0,0,2.143,2.569h6.035a2.385,2.385,0,0,0,2.143-2.569v-7.525h.673a.673.673,0,0,0,0-1.346h-3.132a2.633,2.633,0,0,0-2.634-2.56Zm-1.378,2.555a1.379,1.379,0,0,1,2.753,0h-2.753Zm-1.71,10.186c-.42,0-.882-.538-.882-1.31v-7.525h7.8v7.532c0,.77-.462,1.31-.882,1.31h-6.035v-.007Zm0,0" transform="translate(-132.451 -107.93)"/><path class="b" d="M358.495,447.585a.635.635,0,0,0,.559-.69v-3.939a.571.571,0,1,0-1.117,0V446.9a.632.632,0,0,0,.559.69Zm2.022,0a.635.635,0,0,0,.559-.69v-3.939a.571.571,0,1,0-1.117,0V446.9a.636.636,0,0,0,.559.69Zm2.127,0a.635.635,0,0,0,.559-.69v-3.939a.571.571,0,1,0-1.117,0V446.9a.63.63,0,0,0,.559.69Zm0,0" transform="translate(-354.025 -436.469)"/></g></g></svg>